<svg width="16" height="16" viewBox="0 0 16 16" fill="none" xmlns="http://www.w3.org/2000/svg">
<path d="M7.99967 8.0001H8.00634M10.3567 10.3571C7.2325 13.4813 3.64457 14.9587 2.34282 13.6569C1.04107 12.3552 2.51846 8.76727 5.64265 5.64307C8.76684 2.51888 12.3548 1.04149 13.6565 2.34324C14.9583 3.64499 13.4809 7.23292 10.3567 10.3571ZM10.3567 5.64295C13.4809 8.76715 14.9582 12.3551 13.6565 13.6568C12.3548 14.9586 8.76682 13.4812 5.64262 10.357C2.51843 7.2328 1.04104 3.64487 2.34279 2.34312C3.64454 1.04137 7.23247 2.51876 10.3567 5.64295ZM8.33301 8.0001C8.33301 8.18419 8.18377 8.33343 7.99967 8.33343C7.81558 8.33343 7.66634 8.18419 7.66634 8.0001C7.66634 7.816 7.81558 7.66676 7.99967 7.66676C8.18377 7.66676 8.33301 7.816 8.33301 8.0001Z" stroke="white" stroke-linecap="round" stroke-linejoin="round"/>
</svg>
