<svg width="16" height="16" viewBox="0 0 16 16" fill="none" xmlns="http://www.w3.org/2000/svg">
<g clip-path="url(#clip0_50_612)">
<path d="M3.33343 9.33337H12.0906C12.7658 9.33337 13.1034 9.33337 13.3722 9.20749C13.6089 9.09659 13.8079 8.91854 13.9442 8.69548C14.099 8.44226 14.1363 8.10671 14.2109 7.43563L14.6009 3.9256C14.6236 3.72063 14.635 3.61814 14.6021 3.53881C14.5731 3.46914 14.5214 3.41135 14.4554 3.37489C14.3802 3.33337 14.277 3.33337 14.0708 3.33337H3.0001M1.33334 1.33337H2.16563C2.34204 1.33337 2.43025 1.33337 2.49926 1.36692C2.56001 1.39646 2.61036 1.44376 2.64363 1.50255C2.68142 1.56933 2.68692 1.65737 2.69792 1.83344L3.30208 11.5C3.31309 11.676 3.31859 11.7641 3.35638 11.8309C3.38965 11.8897 3.43999 11.937 3.50074 11.9665C3.56975 12 3.65796 12 3.83438 12H12.6667M5 14.3334H5.00667M11 14.3334H11.0067M5.33334 14.3334C5.33334 14.5175 5.1841 14.6667 5 14.6667C4.81591 14.6667 4.66667 14.5175 4.66667 14.3334C4.66667 14.1493 4.81591 14 5 14C5.1841 14 5.33334 14.1493 5.33334 14.3334ZM11.3333 14.3334C11.3333 14.5175 11.1841 14.6667 11 14.6667C10.8159 14.6667 10.6667 14.5175 10.6667 14.3334C10.6667 14.1493 10.8159 14 11 14C11.1841 14 11.3333 14.1493 11.3333 14.3334Z" stroke="white" stroke-linecap="round" stroke-linejoin="round"/>
</g>
<defs>
<clipPath id="clip0_50_612">
<rect width="16" height="16" fill="white"/>
</clipPath>
</defs>
</svg>
