<svg width="16" height="16" viewBox="0 0 16 16" fill="none" xmlns="http://www.w3.org/2000/svg">
<path d="M8.66667 4.00002L4.33455 4.86645C4.09255 4.91484 3.97155 4.93904 3.87302 4.99789C3.78591 5.04991 3.71182 5.12113 3.6564 5.20613C3.59371 5.30226 3.56476 5.42222 3.50685 5.66211L1.33334 14.6667M1.33334 14.6667L10.3379 12.4932C10.5778 12.4353 10.6978 12.4063 10.7939 12.3436C10.8789 12.2882 10.9501 12.2141 11.0021 12.127C11.061 12.0285 11.0852 11.9075 11.1336 11.6655L12 7.33335M1.33334 14.6667L6.39067 9.60935M13.9124 5.24578L10.7542 2.0876C10.4902 1.82359 10.3582 1.69158 10.206 1.64213C10.0721 1.59862 9.92789 1.59862 9.79399 1.64213C9.64177 1.69159 9.50977 1.82359 9.24575 2.0876L8.75425 2.57911C8.49024 2.84312 8.35823 2.97512 8.30877 3.12734C8.26527 3.26124 8.26527 3.40547 8.30877 3.53937C8.35823 3.69159 8.49024 3.82359 8.75425 4.0876L11.9124 7.24577C12.1764 7.50979 12.3084 7.64179 12.4607 7.69125C12.5946 7.73476 12.7388 7.73476 12.8727 7.69125C13.0249 7.64179 13.1569 7.50979 13.4209 7.24577L13.9124 6.75427C14.1764 6.49026 14.3084 6.35825 14.3579 6.20603C14.4014 6.07214 14.4014 5.92791 14.3579 5.79401C14.3084 5.64179 14.1764 5.50979 13.9124 5.24578ZM7.33333 7.33336C8.06971 7.33336 8.66667 7.93031 8.66667 8.66669C8.66667 9.40307 8.06972 10 7.33334 10C6.59696 10 6 9.40307 6 8.66669C6 7.93031 6.59696 7.33336 7.33333 7.33336Z" stroke="white" stroke-linecap="round" stroke-linejoin="round"/>
</svg>
