<svg width="16" height="16" viewBox="0 0 16 16" fill="none" xmlns="http://www.w3.org/2000/svg">
<path d="M1.33334 4.66663L6.77662 8.47692C7.2174 8.78547 7.43779 8.93974 7.67751 8.9995C7.88927 9.05228 8.11074 9.05228 8.32249 8.9995C8.56222 8.93974 8.78261 8.78547 9.22339 8.47692L14.6667 4.66663M4.53334 13.3333H11.4667C12.5868 13.3333 13.1468 13.3333 13.5747 13.1153C13.951 12.9236 14.2569 12.6176 14.4487 12.2413C14.6667 11.8134 14.6667 11.2534 14.6667 10.1333V5.86663C14.6667 4.74652 14.6667 4.18647 14.4487 3.75864C14.2569 3.38232 13.951 3.07636 13.5747 2.88461C13.1468 2.66663 12.5868 2.66663 11.4667 2.66663H4.53334C3.41323 2.66663 2.85318 2.66663 2.42535 2.88461C2.04903 3.07636 1.74307 3.38232 1.55132 3.75864C1.33334 4.18647 1.33334 4.74652 1.33334 5.86663V10.1333C1.33334 11.2534 1.33334 11.8134 1.55132 12.2413C1.74307 12.6176 2.04903 12.9236 2.42535 13.1153C2.85318 13.3333 3.41323 13.3333 4.53334 13.3333Z" stroke="white" stroke-linecap="round" stroke-linejoin="round"/>
</svg>
