<svg width="16" height="16" viewBox="0 0 16 16" fill="none" xmlns="http://www.w3.org/2000/svg">
<g clip-path="url(#clip0_50_912)">
<path d="M10 5.99992H10.0067M6 5.99992H6.00667M14.6667 7.99992C14.6667 11.6818 11.6819 14.6666 8 14.6666C4.3181 14.6666 1.33334 11.6818 1.33334 7.99992C1.33334 4.31802 4.3181 1.33325 8 1.33325C11.6819 1.33325 14.6667 4.31802 14.6667 7.99992ZM10.3333 5.99992C10.3333 6.18401 10.1841 6.33325 10 6.33325C9.81591 6.33325 9.66667 6.18401 9.66667 5.99992C9.66667 5.81582 9.81591 5.66659 10 5.66659C10.1841 5.66659 10.3333 5.81582 10.3333 5.99992ZM6.33334 5.99992C6.33334 6.18401 6.1841 6.33325 6 6.33325C5.81591 6.33325 5.66667 6.18401 5.66667 5.99992C5.66667 5.81582 5.81591 5.66659 6 5.66659C6.1841 5.66659 6.33334 5.81582 6.33334 5.99992ZM8 11.6666C9.667 11.6666 11 10.4446 11 9.33325H5C5 10.4446 6.333 11.6666 8 11.6666Z" stroke="white" stroke-linecap="round" stroke-linejoin="round"/>
</g>
<defs>
<clipPath id="clip0_50_912">
<rect width="16" height="16" fill="white"/>
</clipPath>
</defs>
</svg>
