<svg width="16" height="16" viewBox="0 0 16 16" fill="none" xmlns="http://www.w3.org/2000/svg">
<path d="M9.33333 1.51294V4.26663C9.33333 4.64 9.33333 4.82669 9.40599 4.96929C9.46991 5.09473 9.5719 5.19672 9.69734 5.26064C9.83994 5.3333 10.0266 5.3333 10.4 5.3333H13.1537M10.6667 8.66659H5.33333M10.6667 11.3333H5.33333M6.66666 5.99992H5.33333M9.33333 1.33325H5.86666C4.74656 1.33325 4.18651 1.33325 3.75868 1.55124C3.38236 1.74299 3.0764 2.04895 2.88465 2.42527C2.66666 2.85309 2.66666 3.41315 2.66666 4.53325V11.4666C2.66666 12.5867 2.66666 13.1467 2.88465 13.5746C3.0764 13.9509 3.38236 14.2569 3.75868 14.4486C4.18651 14.6666 4.74656 14.6666 5.86666 14.6666H10.1333C11.2534 14.6666 11.8135 14.6666 12.2413 14.4486C12.6176 14.2569 12.9236 13.9509 13.1153 13.5746C13.3333 13.1467 13.3333 12.5867 13.3333 11.4666V5.33325L9.33333 1.33325Z" stroke="white" stroke-linecap="round" stroke-linejoin="round"/>
</svg>
