<svg width="16" height="16" viewBox="0 0 16 16" fill="none" xmlns="http://www.w3.org/2000/svg">
<path d="M13.3333 6.99992V4.53325C13.3333 3.41315 13.3333 2.85309 13.1153 2.42527C12.9236 2.04895 12.6176 1.74299 12.2413 1.55124C11.8135 1.33325 11.2534 1.33325 10.1333 1.33325H5.86666C4.74656 1.33325 4.18651 1.33325 3.75868 1.55124C3.38236 1.74299 3.0764 2.04895 2.88465 2.42527C2.66666 2.85309 2.66666 3.41315 2.66666 4.53325V11.4666C2.66666 12.5867 2.66666 13.1467 2.88465 13.5746C3.0764 13.9509 3.38236 14.2569 3.75868 14.4486C4.18651 14.6666 4.74656 14.6666 5.86666 14.6666H7.66666M14.6667 14.6666L13.6667 13.6666M14.3333 11.9999C14.3333 13.2886 13.2887 14.3333 12 14.3333C10.7113 14.3333 9.66666 13.2886 9.66666 11.9999C9.66666 10.7113 10.7113 9.66659 12 9.66659C13.2887 9.66659 14.3333 10.7113 14.3333 11.9999Z" stroke="white" stroke-linecap="round" stroke-linejoin="round"/>
</svg>
