<svg width="16" height="16" viewBox="0 0 16 16" fill="none" xmlns="http://www.w3.org/2000/svg">
<g clip-path="url(#clip0_50_622)">
<path d="M8 14.6666V1.33325M4.66667 14.6666V11.3333M4.66667 4.66659V1.33325M11.3333 14.6666V11.3333M11.3333 4.66659V1.33325M1.33334 4.66659H14.6667M1.33334 11.3333H14.6667M14.6667 11.4666V4.53325C14.6667 3.41315 14.6667 2.85309 14.4487 2.42527C14.2569 2.04895 13.951 1.74299 13.5747 1.55124C13.1468 1.33325 12.5868 1.33325 11.4667 1.33325L4.53334 1.33325C3.41323 1.33325 2.85318 1.33325 2.42535 1.55124C2.04903 1.74299 1.74307 2.04895 1.55132 2.42527C1.33334 2.85309 1.33334 3.41315 1.33334 4.53325L1.33334 11.4666C1.33334 12.5867 1.33334 13.1467 1.55132 13.5746C1.74307 13.9509 2.04903 14.2569 2.42536 14.4486C2.85318 14.6666 3.41323 14.6666 4.53334 14.6666H11.4667C12.5868 14.6666 13.1468 14.6666 13.5747 14.4486C13.951 14.2569 14.2569 13.9509 14.4487 13.5746C14.6667 13.1467 14.6667 12.5867 14.6667 11.4666Z" stroke="white" stroke-linecap="round" stroke-linejoin="round"/>
</g>
<defs>
<clipPath id="clip0_50_622">
<rect width="16" height="16" fill="white"/>
</clipPath>
</defs>
</svg>
