<svg width="16" height="17" viewBox="0 0 16 17" fill="none" xmlns="http://www.w3.org/2000/svg">
<path d="M4 8.11328H6.66667M5.33334 6.77995V9.44661M10 8.77995H10.0067M12 7.44661H12.0067M6.96597 4.11328H9.03403C10.784 4.11328 11.6589 4.11328 12.3457 4.4449C12.9504 4.73688 13.4528 5.20467 13.7871 5.78701C14.1668 6.44841 14.2291 7.32115 14.3538 9.06663L14.5178 11.363C14.5983 12.4889 13.7065 13.4466 12.5777 13.4466C12.0004 13.4466 11.453 13.1902 11.0834 12.7467L10.8333 12.4466C10.6046 12.1721 10.4902 12.0348 10.3599 11.9239C10.0869 11.6914 9.75634 11.5366 9.40291 11.4757C9.23433 11.4466 9.05565 11.4466 8.6983 11.4466H7.30171C6.94436 11.4466 6.76568 11.4466 6.59709 11.4757C6.24367 11.5366 5.91312 11.6914 5.64007 11.9239C5.50983 12.0348 5.39544 12.1721 5.16667 12.4466L4.91656 12.7467C4.54701 13.1902 3.99957 13.4466 3.42231 13.4466C2.2935 13.4466 1.40175 12.4889 1.48217 11.363L1.64619 9.06663C1.77087 7.32115 1.83321 6.44841 2.21292 5.78701C2.54723 5.20467 3.04963 4.73688 3.65431 4.4449C4.34109 4.11328 5.21605 4.11328 6.96597 4.11328Z" stroke="white" stroke-linecap="round" stroke-linejoin="round"/>
</svg>
