<svg width="16" height="16" viewBox="0 0 16 16" fill="none" xmlns="http://www.w3.org/2000/svg">
<g clip-path="url(#clip0_50_685)">
<path d="M8 3.99992V14.6666M8 3.99992H5.64286C5.29555 3.99992 4.96247 3.85944 4.71689 3.60939C4.4713 3.35935 4.33334 3.02021 4.33334 2.66659C4.33334 2.31296 4.4713 1.97382 4.71689 1.72378C4.96247 1.47373 5.29555 1.33325 5.64286 1.33325C7.47619 1.33325 8 3.99992 8 3.99992ZM8 3.99992H10.3571C10.7045 3.99992 11.0375 3.85944 11.2831 3.60939C11.5287 3.35935 11.6667 3.02021 11.6667 2.66659C11.6667 2.31296 11.5287 1.97382 11.2831 1.72378C11.0375 1.47373 10.7045 1.33325 10.3571 1.33325C8.52381 1.33325 8 3.99992 8 3.99992ZM13.3333 7.33325V12.5333C13.3333 13.28 13.3333 13.6534 13.188 13.9386C13.0602 14.1895 12.8562 14.3934 12.6053 14.5213C12.3201 14.6666 11.9467 14.6666 11.2 14.6666L4.8 14.6666C4.05327 14.6666 3.6799 14.6666 3.39468 14.5213C3.1438 14.3934 2.93982 14.1895 2.81199 13.9386C2.66667 13.6534 2.66667 13.28 2.66667 12.5333V7.33325M1.33334 5.06659L1.33334 6.26659C1.33334 6.63995 1.33334 6.82664 1.406 6.96925C1.46991 7.09469 1.5719 7.19667 1.69734 7.26059C1.83995 7.33325 2.02663 7.33325 2.4 7.33325L13.6 7.33325C13.9734 7.33325 14.1601 7.33325 14.3027 7.26059C14.4281 7.19667 14.5301 7.09469 14.594 6.96925C14.6667 6.82664 14.6667 6.63995 14.6667 6.26659V5.06659C14.6667 4.69322 14.6667 4.50653 14.594 4.36393C14.5301 4.23848 14.4281 4.1365 14.3027 4.07258C14.1601 3.99992 13.9734 3.99992 13.6 3.99992L2.4 3.99992C2.02663 3.99992 1.83995 3.99992 1.69734 4.07258C1.5719 4.1365 1.46991 4.23848 1.406 4.36393C1.33334 4.50653 1.33334 4.69322 1.33334 5.06659Z" stroke="white" stroke-linecap="round" stroke-linejoin="round"/>
</g>
<defs>
<clipPath id="clip0_50_685">
<rect width="16" height="16" fill="white"/>
</clipPath>
</defs>
</svg>
