<svg width="16" height="16" viewBox="0 0 16 16" fill="none" xmlns="http://www.w3.org/2000/svg">
<path d="M6.66667 9.68973C7.48903 9.21443 8.5109 9.21443 9.33326 9.68973M1.33334 9.99992L1.801 5.32333C1.81873 5.14602 1.82759 5.05736 1.84119 4.98131C2.00149 4.0846 2.74747 3.40949 3.65568 3.33921C3.73271 3.33325 3.82181 3.33325 4 3.33325M14.6667 9.99992L14.199 5.32333C14.1813 5.14602 14.1724 5.05736 14.1588 4.98131C13.9985 4.0846 13.2525 3.40949 12.3443 3.33921C12.2673 3.33325 12.1782 3.33325 12 3.33325M5.88562 8.1143C6.92702 9.15569 6.92702 10.8441 5.88562 11.8855C4.84423 12.9269 3.15578 12.9269 2.11438 11.8855C1.07299 10.8441 1.07299 9.1557 2.11438 8.1143C3.15578 7.0729 4.84422 7.0729 5.88562 8.1143ZM13.8856 8.1143C14.927 9.15569 14.927 10.8441 13.8856 11.8855C12.8442 12.9269 11.1558 12.9269 10.1144 11.8855C9.07299 10.8441 9.07299 9.1557 10.1144 8.1143C11.1558 7.0729 12.8442 7.0729 13.8856 8.1143Z" stroke="white" stroke-linecap="round" stroke-linejoin="round"/>
</svg>
