<svg width="16" height="16" viewBox="0 0 16 16" fill="none" xmlns="http://www.w3.org/2000/svg">
<path d="M11.3333 9.66667V7.66295C11.3333 7.5433 11.3333 7.48348 11.3151 7.43066C11.299 7.38395 11.2727 7.34141 11.2381 7.30611C11.199 7.26619 11.1455 7.23944 11.0385 7.18593L8 5.66667M2.66667 6.33334V10.8711C2.66667 11.119 2.66667 11.243 2.70535 11.3515C2.73954 11.4475 2.79527 11.5343 2.86825 11.6054C2.95081 11.6858 3.06352 11.7374 3.2889 11.8408L7.55557 13.7963C7.71906 13.8712 7.8008 13.9087 7.88596 13.9235C7.96143 13.9366 8.03858 13.9366 8.11404 13.9235C8.1992 13.9087 8.28095 13.8712 8.44443 13.7963L12.7111 11.8408C12.9365 11.7374 13.0492 11.6858 13.1317 11.6054C13.2047 11.5343 13.2605 11.4475 13.2947 11.3515C13.3333 11.243 13.3333 11.119 13.3333 10.8711V6.33334M1.33334 5.66667L7.76149 2.45259C7.84894 2.40887 7.89267 2.387 7.93854 2.3784C7.97916 2.37078 8.02085 2.37078 8.06147 2.3784C8.10733 2.387 8.15106 2.40887 8.23852 2.45259L14.6667 5.66667L8.23852 8.88075C8.15106 8.92447 8.10733 8.94634 8.06147 8.95494C8.02085 8.96256 7.97916 8.96256 7.93854 8.95494C7.89267 8.94634 7.84894 8.92447 7.76149 8.88075L1.33334 5.66667Z" stroke="white" stroke-linecap="round" stroke-linejoin="round"/>
</svg>
