<svg width="16" height="16" viewBox="0 0 16 16" fill="none" xmlns="http://www.w3.org/2000/svg">
<g clip-path="url(#clip0_50_944)">
<path d="M4 13.3915H5.7402C5.96709 13.3915 6.19259 13.4185 6.41254 13.4725L8.25126 13.9193C8.65023 14.0165 9.06585 14.026 9.46898 13.9477L11.502 13.5522C12.039 13.4476 12.5331 13.1904 12.9202 12.8138L14.3586 11.4146C14.7694 11.0157 14.7694 10.3684 14.3586 9.9688C13.9888 9.60905 13.4032 9.56855 12.9848 9.87363L11.3084 11.0967C11.0683 11.2722 10.7762 11.3666 10.4758 11.3666H8.857L9.88738 11.3666C10.4681 11.3666 10.9386 10.909 10.9386 10.344V10.1395C10.9386 9.67043 10.6104 9.2614 10.1427 9.14801L8.5524 8.76125C8.29359 8.69848 8.02854 8.66676 7.7621 8.66676C7.11889 8.66676 5.9546 9.1993 5.9546 9.1993L4 10.0167M1.33334 9.73343L1.33334 13.6001C1.33334 13.9735 1.33334 14.1601 1.406 14.3028C1.46991 14.4282 1.5719 14.5302 1.69734 14.5941C1.83995 14.6668 2.02663 14.6668 2.4 14.6668H2.93334C3.3067 14.6668 3.49339 14.6668 3.636 14.5941C3.76144 14.5302 3.86342 14.4282 3.92734 14.3028C4 14.1601 4 13.9735 4 13.6001V9.73343C4 9.36006 4 9.17337 3.92734 9.03077C3.86342 8.90533 3.76144 8.80334 3.636 8.73942C3.49339 8.66676 3.3067 8.66676 2.93334 8.66676H2.4C2.02663 8.66676 1.83995 8.66676 1.69734 8.73942C1.5719 8.80334 1.46991 8.90532 1.406 9.03077C1.33334 9.17337 1.33334 9.36006 1.33334 9.73343ZM11.4609 2.39493C11.063 1.56236 10.1457 1.12128 9.25363 1.54701C8.36153 1.97273 7.98147 2.98235 8.35497 3.86864C8.58581 4.4164 9.24717 5.48009 9.71873 6.21278C9.89297 6.4835 9.98008 6.61886 10.1073 6.69805C10.2165 6.76597 10.3531 6.80258 10.4816 6.79833C10.6314 6.79338 10.7745 6.71971 11.0608 6.57238C11.8355 6.17364 12.9401 5.58313 13.4139 5.22418C14.1805 4.64337 14.3704 3.57581 13.7964 2.76425C13.2225 1.9527 12.2218 1.87284 11.4609 2.39493Z" stroke="white" stroke-linecap="round" stroke-linejoin="round"/>
</g>
<defs>
<clipPath id="clip0_50_944">
<rect width="16" height="16" fill="white"/>
</clipPath>
</defs>
</svg>
