<svg width="16" height="16" viewBox="0 0 16 16" fill="none" xmlns="http://www.w3.org/2000/svg">
<path d="M2.84806 13.8186L7.24576 9.42091C7.50977 9.1569 7.64177 9.0249 7.79399 8.97544C7.92789 8.93193 8.07212 8.93193 8.20601 8.97544C8.35823 9.0249 8.49024 9.15691 8.75425 9.42091L13.1226 13.7893M9.33334 10L11.2458 8.08758C11.5098 7.82357 11.6418 7.69156 11.794 7.6421C11.9279 7.5986 12.0721 7.5986 12.206 7.6421C12.3582 7.69156 12.4902 7.82357 12.7542 8.08758L14.6667 10M6.66667 6C6.66667 6.73638 6.06972 7.33333 5.33334 7.33333C4.59696 7.33333 4 6.73638 4 6C4 5.26362 4.59696 4.66667 5.33334 4.66667C6.06972 4.66667 6.66667 5.26362 6.66667 6ZM4.53334 14H11.4667C12.5868 14 13.1468 14 13.5747 13.782C13.951 13.5903 14.2569 13.2843 14.4487 12.908C14.6667 12.4802 14.6667 11.9201 14.6667 10.8V5.2C14.6667 4.0799 14.6667 3.51984 14.4487 3.09202C14.2569 2.71569 13.951 2.40973 13.5747 2.21799C13.1468 2 12.5868 2 11.4667 2H4.53334C3.41323 2 2.85318 2 2.42535 2.21799C2.04903 2.40973 1.74307 2.71569 1.55132 3.09202C1.33334 3.51984 1.33334 4.0799 1.33334 5.2V10.8C1.33334 11.9201 1.33334 12.4802 1.55132 12.908C1.74307 13.2843 2.04903 13.5903 2.42535 13.782C2.85318 14 3.41323 14 4.53334 14Z" stroke="white" stroke-linecap="round" stroke-linejoin="round"/>
</svg>
