<svg width="16" height="16" viewBox="0 0 16 16" fill="none" xmlns="http://www.w3.org/2000/svg">
<g clip-path="url(#clip0_51_988)">
<path d="M6.66667 11.7723V13.3333C6.66667 14.0696 7.26362 14.6666 8 14.6666C8.73638 14.6666 9.33334 14.0696 9.33334 13.3333V11.7723M8 1.33325V1.99992M2 7.99992H1.33334M3.66667 3.66659L3.2666 3.26652M12.3333 3.66659L12.7335 3.26652M14.6667 7.99992H14M12 7.99992C12 10.2091 10.2091 11.9999 8 11.9999C5.79086 11.9999 4 10.2091 4 7.99992C4 5.79078 5.79086 3.99992 8 3.99992C10.2091 3.99992 12 5.79078 12 7.99992Z" stroke="white" stroke-linecap="round" stroke-linejoin="round"/>
</g>
<defs>
<clipPath id="clip0_51_988">
<rect width="16" height="16" fill="white"/>
</clipPath>
</defs>
</svg>
