<svg width="16" height="16" viewBox="0 0 16 16" fill="none" xmlns="http://www.w3.org/2000/svg">
<path d="M10 3.06667C10 2.6933 10 2.50661 9.92734 2.36401C9.86342 2.23856 9.76144 2.13658 9.63599 2.07266C9.49339 2 9.3067 2 8.93333 2H7.06667C6.6933 2 6.50661 2 6.36401 2.07266C6.23857 2.13658 6.13658 2.23856 6.07266 2.36401C6 2.50661 6 2.6933 6 3.06667V4.93333C6 5.3067 6 5.49339 5.92734 5.63599C5.86342 5.76143 5.76144 5.86342 5.63599 5.92734C5.49339 6 5.3067 6 4.93333 6H3.06667C2.6933 6 2.50661 6 2.36401 6.07266C2.23856 6.13658 2.13658 6.23856 2.07266 6.36401C2 6.50661 2 6.6933 2 7.06667V8.93333C2 9.3067 2 9.49339 2.07266 9.63599C2.13658 9.76144 2.23856 9.86342 2.36401 9.92734C2.50661 10 2.6933 10 3.06667 10H4.93333C5.3067 10 5.49339 10 5.63599 10.0727C5.76144 10.1366 5.86342 10.2386 5.92734 10.364C6 10.5066 6 10.6933 6 11.0667V12.9333C6 13.3067 6 13.4934 6.07266 13.636C6.13658 13.7614 6.23857 13.8634 6.36401 13.9273C6.50661 14 6.6933 14 7.06667 14H8.93333C9.3067 14 9.49339 14 9.63599 13.9273C9.76144 13.8634 9.86342 13.7614 9.92734 13.636C10 13.4934 10 13.3067 10 12.9333V11.0667C10 10.6933 10 10.5066 10.0727 10.364C10.1366 10.2386 10.2386 10.1366 10.364 10.0727C10.5066 10 10.6933 10 11.0667 10H12.9333C13.3067 10 13.4934 10 13.636 9.92734C13.7614 9.86342 13.8634 9.76144 13.9273 9.63599C14 9.49339 14 9.3067 14 8.93333V7.06667C14 6.6933 14 6.50661 13.9273 6.36401C13.8634 6.23857 13.7614 6.13658 13.636 6.07266C13.4934 6 13.3067 6 12.9333 6L11.0667 6C10.6933 6 10.5066 6 10.364 5.92734C10.2386 5.86342 10.1366 5.76143 10.0727 5.63599C10 5.49339 10 5.3067 10 4.93333V3.06667Z" stroke="white" stroke-linecap="round" stroke-linejoin="round"/>
</svg>
