<svg width="16" height="16" viewBox="0 0 16 16" fill="none" xmlns="http://www.w3.org/2000/svg">
<g clip-path="url(#clip0_50_583)">
<path d="M1.33334 8.00004C1.33334 11.6819 4.3181 14.6667 8 14.6667C9.10457 14.6667 10 13.7713 10 12.6667V12.3334C10 12.0238 10 11.869 10.0171 11.739C10.1353 10.8415 10.8415 10.1353 11.739 10.0172C11.8689 10 12.0237 10 12.3333 10H12.6667C13.7712 10 14.6667 9.10461 14.6667 8.00004C14.6667 4.31814 11.6819 1.33337 8 1.33337C4.3181 1.33337 1.33334 4.31814 1.33334 8.00004Z" stroke="white" stroke-linecap="round" stroke-linejoin="round"/>
<path d="M4.66667 8.66671C5.03486 8.66671 5.33334 8.36823 5.33334 8.00004C5.33334 7.63185 5.03486 7.33337 4.66667 7.33337C4.29848 7.33337 4 7.63185 4 8.00004C4 8.36823 4.29848 8.66671 4.66667 8.66671Z" stroke="white" stroke-linecap="round" stroke-linejoin="round"/>
<path d="M10.6667 6.00004C11.0349 6.00004 11.3333 5.70156 11.3333 5.33337C11.3333 4.96518 11.0349 4.66671 10.6667 4.66671C10.2985 4.66671 10 4.96518 10 5.33337C10 5.70156 10.2985 6.00004 10.6667 6.00004Z" stroke="white" stroke-linecap="round" stroke-linejoin="round"/>
<path d="M6.66667 5.33337C7.03486 5.33337 7.33334 5.0349 7.33334 4.66671C7.33334 4.29852 7.03486 4.00004 6.66667 4.00004C6.29848 4.00004 6 4.29852 6 4.66671C6 5.0349 6.29848 5.33337 6.66667 5.33337Z" stroke="white" stroke-linecap="round" stroke-linejoin="round"/>
</g>
<defs>
<clipPath id="clip0_50_583">
<rect width="16" height="16" fill="white"/>
</clipPath>
</defs>
</svg>
