<svg width="16" height="16" viewBox="0 0 16 16" fill="none" xmlns="http://www.w3.org/2000/svg">
<path d="M11.8299 1.87524C12.473 1.21092 13.5357 1.20233 14.1895 1.85616C14.8255 2.49207 14.8373 3.51939 14.2162 4.16979L12.3638 6.10963C12.2186 6.26168 12.146 6.33771 12.1012 6.42675C12.0616 6.50557 12.0381 6.59147 12.0319 6.67946C12.0249 6.77887 12.0486 6.8813 12.0958 7.08615L13.2478 12.0779C13.2963 12.2881 13.3206 12.3933 13.3127 12.495C13.3058 12.585 13.2807 12.6727 13.2388 12.7527C13.1916 12.8431 13.1153 12.9194 12.9627 13.0719L12.7155 13.3191C12.3114 13.7232 12.1093 13.9253 11.9026 13.9619C11.722 13.9938 11.5362 13.9499 11.389 13.8406C11.2204 13.7154 11.13 13.4443 10.9493 12.9022L9.60947 8.88267L7.37926 11.1129C7.24614 11.246 7.17957 11.3126 7.13505 11.391C7.0956 11.4604 7.06896 11.5364 7.05638 11.6152C7.04218 11.7043 7.05257 11.7978 7.07336 11.9849L7.19584 13.0872C7.21663 13.2743 7.22702 13.3679 7.21282 13.4569C7.20025 13.5357 7.1736 13.6117 7.13415 13.6812C7.08963 13.7595 7.02307 13.8261 6.88994 13.9592L6.75827 14.0909C6.4429 14.4063 6.28521 14.564 6.10998 14.6096C5.95628 14.6497 5.79333 14.6335 5.65048 14.5641C5.4876 14.485 5.3639 14.2994 5.1165 13.9283L4.07096 12.36C4.02676 12.2937 4.00466 12.2606 3.979 12.2305C3.95621 12.2038 3.93134 12.1789 3.90463 12.1561C3.87457 12.1305 3.84142 12.1084 3.77512 12.0642L2.20679 11.0186C1.8357 10.7712 1.65015 10.6475 1.571 10.4846C1.50158 10.3418 1.48545 10.1788 1.5255 10.0251C1.57117 9.84991 1.72885 9.69223 2.04423 9.37685L2.1759 9.24518C2.30902 9.11206 2.37558 9.0455 2.45397 9.00097C2.52341 8.96153 2.59938 8.93488 2.67824 8.9223C2.76727 8.9081 2.86082 8.9185 3.04794 8.93929L4.1502 9.06176C4.33731 9.08255 4.43087 9.09295 4.51989 9.07875C4.59876 9.06617 4.67472 9.03952 4.74417 9.00008C4.82255 8.95555 4.88911 8.88899 5.02224 8.75587L7.25245 6.52565L3.23293 5.18581C2.69078 5.00509 2.41971 4.91473 2.29451 4.74613C2.18519 4.5989 2.14134 4.41315 2.17327 4.23257C2.20985 4.02578 2.4119 3.82373 2.816 3.41963L3.06318 3.17245C3.21577 3.01986 3.29207 2.94356 3.38247 2.8963C3.46247 2.85447 3.55014 2.82933 3.64016 2.82239C3.74186 2.81456 3.847 2.83883 4.05727 2.88735L9.03003 4.03491C9.23667 4.08259 9.33998 4.10644 9.43973 4.09934C9.53604 4.0925 9.62972 4.06481 9.71427 4.0182C9.80185 3.96992 9.87561 3.89374 10.0231 3.74139L11.8299 1.87524Z" stroke="white" stroke-linecap="round" stroke-linejoin="round"/>
</svg>
