<svg width="16" height="16" viewBox="0 0 16 16" fill="none" xmlns="http://www.w3.org/2000/svg">
<g clip-path="url(#clip0_50_952)">
<path d="M5 2.99992C5 2.07944 5.74619 1.33325 6.66667 1.33325C7.58714 1.33325 8.33334 2.07944 8.33334 2.99992V3.99992H9C9.93189 3.99992 10.3978 3.99992 10.7654 4.15216C11.2554 4.35515 11.6448 4.7445 11.8478 5.23455C12 5.60209 12 6.06804 12 6.99992H13C13.9205 6.99992 14.6667 7.74611 14.6667 8.66659C14.6667 9.58706 13.9205 10.3333 13 10.3333H12V11.4666C12 12.5867 12 13.1467 11.782 13.5746C11.5903 13.9509 11.2843 14.2569 10.908 14.4486C10.4802 14.6666 9.92011 14.6666 8.8 14.6666H8.33334V13.4999C8.33334 12.6715 7.66176 11.9999 6.83334 11.9999C6.00491 11.9999 5.33334 12.6715 5.33334 13.4999V14.6666H4.53334C3.41323 14.6666 2.85318 14.6666 2.42535 14.4486C2.04903 14.2569 1.74307 13.9509 1.55132 13.5746C1.33334 13.1467 1.33334 12.5867 1.33334 11.4666V10.3333H2.33334C3.25381 10.3333 4 9.58706 4 8.66659C4 7.74611 3.25381 6.99992 2.33334 6.99992H1.33334C1.33334 6.06804 1.33334 5.60209 1.48558 5.23455C1.68856 4.7445 2.07791 4.35515 2.56797 4.15216C2.93551 3.99992 3.40145 3.99992 4.33334 3.99992H5V2.99992Z" stroke="white" stroke-linecap="round" stroke-linejoin="round"/>
</g>
<defs>
<clipPath id="clip0_50_952">
<rect width="16" height="16" fill="white"/>
</clipPath>
</defs>
</svg>
