<svg width="16" height="16" viewBox="0 0 16 16" fill="none" xmlns="http://www.w3.org/2000/svg">
<path d="M8.66643 7.33327L2.33309 13.6666M9.34537 2.35892C10.1574 2.89772 10.9379 3.53294 11.6672 4.26227C12.4028 4.99788 13.0427 5.78554 13.5845 6.60511M6.16974 5.26403L4.25316 4.62517C4.03243 4.5516 3.78932 4.59842 3.61171 4.7487L1.70694 6.36043C1.31699 6.69039 1.42777 7.31833 1.90709 7.49492L3.71189 8.15985M7.78712 12.235L8.45205 14.0398C8.62864 14.5191 9.25658 14.6299 9.58654 14.2399L11.1983 12.3351C11.3486 12.1575 11.3954 11.9144 11.3218 11.6937L10.6829 9.77711M12.8988 1.51376L9.62783 2.05892C9.27463 2.11779 8.95067 2.29139 8.70605 2.55288L4.29734 7.26564C3.15456 8.48723 3.18635 10.3949 4.36918 11.5778C5.55202 12.7606 7.45974 12.7924 8.68132 11.6496L13.3941 7.24091C13.6556 6.99629 13.8292 6.67233 13.888 6.31913L14.4332 3.04815C14.5836 2.14572 13.8012 1.36335 12.8988 1.51376Z" stroke="white" stroke-linecap="round" stroke-linejoin="round"/>
</svg>
