<svg width="16" height="16" viewBox="0 0 16 16" fill="none" xmlns="http://www.w3.org/2000/svg">
<path d="M10.6669 5.99992V3.99992C10.6669 2.52716 9.47301 1.33325 8.00025 1.33325C6.52749 1.33325 5.33358 2.52716 5.33358 3.99992V5.99992M2.39492 6.90123L1.99492 11.1679C1.88119 12.381 1.82432 12.9876 2.02562 13.4561C2.20245 13.8677 2.51233 14.208 2.90559 14.4224C3.35327 14.6666 3.96249 14.6666 5.18095 14.6666H10.8195C12.038 14.6666 12.6472 14.6666 13.0949 14.4224C13.4882 14.208 13.798 13.8677 13.9749 13.4561C14.1762 12.9876 14.1193 12.381 14.0056 11.1679L13.6056 6.90123C13.5095 5.87682 13.4615 5.36461 13.2311 4.97736C13.0282 4.63631 12.7285 4.36333 12.37 4.19315C11.9629 3.99992 11.4485 3.99992 10.4196 3.99992L5.58095 3.99992C4.55204 3.99992 4.03759 3.99992 3.63053 4.19315C3.27203 4.36332 2.97225 4.63631 2.76936 4.97736C2.53898 5.36461 2.49096 5.87682 2.39492 6.90123Z" stroke="white" stroke-linecap="round" stroke-linejoin="round"/>
</svg>
