<svg width="16" height="16" viewBox="0 0 16 16" fill="none" xmlns="http://www.w3.org/2000/svg">
<g clip-path="url(#clip0_51_964)">
<path d="M6 11.3333L2.66667 14.6666M10 11.3333L13.3333 14.6666M8 1.33325V2.66659M8 14.6666V11.3333M3.46667 11.3333H12.5333C13.2801 11.3333 13.6534 11.3333 13.9387 11.1879C14.1895 11.0601 14.3935 10.8561 14.5213 10.6052C14.6667 10.32 14.6667 9.94666 14.6667 9.19992V4.79992C14.6667 4.05318 14.6667 3.67981 14.5213 3.3946C14.3935 3.14372 14.1895 2.93974 13.9387 2.81191C13.6534 2.66659 13.2801 2.66659 12.5333 2.66659H3.46667C2.71993 2.66659 2.34656 2.66659 2.06135 2.81191C1.81047 2.93974 1.60649 3.14372 1.47866 3.3946C1.33334 3.67981 1.33334 4.05318 1.33334 4.79992V9.19992C1.33334 9.94666 1.33334 10.32 1.47866 10.6052C1.60649 10.8561 1.81047 11.0601 2.06135 11.1879C2.34656 11.3333 2.71993 11.3333 3.46667 11.3333Z" stroke="white" stroke-linecap="round" stroke-linejoin="round"/>
</g>
<defs>
<clipPath id="clip0_51_964">
<rect width="16" height="16" fill="white"/>
</clipPath>
</defs>
</svg>
