<svg width="16" height="16" viewBox="0 0 16 16" fill="none" xmlns="http://www.w3.org/2000/svg">
<g clip-path="url(#clip0_50_902)">
<path d="M3 14.6666V11.3333M3 4.66659V1.33325M1.33334 2.99992H4.66667M1.33334 12.9999H4.66667M8.66667 1.99992L7.51055 5.00583C7.32254 5.49465 7.22854 5.73906 7.08236 5.94464C6.95279 6.12685 6.7936 6.28604 6.61139 6.41561C6.40581 6.56179 6.1614 6.65579 5.67258 6.8438L2.66667 7.99992L5.67258 9.15604C6.1614 9.34404 6.40581 9.43805 6.61139 9.58423C6.7936 9.71379 6.9528 9.87299 7.08236 10.0552C7.22854 10.2608 7.32254 10.5052 7.51055 10.994L8.66667 13.9999L9.82279 10.994C10.0108 10.5052 10.1048 10.2608 10.251 10.0552C10.3805 9.87299 10.5397 9.71379 10.7219 9.58423C10.9275 9.43805 11.1719 9.34404 11.6608 9.15604L14.6667 7.99992L11.6608 6.8438C11.1719 6.65579 10.9275 6.56179 10.7219 6.4156C10.5397 6.28604 10.3805 6.12685 10.251 5.94464C10.1048 5.73906 10.0108 5.49465 9.82279 5.00583L8.66667 1.99992Z" stroke="white" stroke-linecap="round" stroke-linejoin="round"/>
</g>
<defs>
<clipPath id="clip0_50_902">
<rect width="16" height="16" fill="white"/>
</clipPath>
</defs>
</svg>
