<svg width="16" height="16" viewBox="0 0 16 16" fill="none" xmlns="http://www.w3.org/2000/svg">
<path d="M7.53759 2.13795C7.68924 1.87405 7.76507 1.7421 7.86418 1.69787C7.95062 1.6593 8.04939 1.6593 8.13583 1.69787C8.23494 1.7421 8.31077 1.87405 8.46242 2.13795L9.76587 4.40617C9.82201 4.50386 9.85008 4.55271 9.88944 4.58821C9.92426 4.61961 9.96532 4.64332 10.0099 4.65777C10.0604 4.67411 10.1167 4.674 10.2294 4.67377L12.8454 4.66848C13.1498 4.66786 13.302 4.66755 13.3898 4.73128C13.4665 4.78685 13.5158 4.87238 13.5257 4.96653C13.5369 5.07448 13.4606 5.20612 13.3078 5.46941L11.9952 7.73233C11.9387 7.8298 11.9104 7.87853 11.8994 7.93037C11.8896 7.97623 11.8896 8.02364 11.8994 8.0695C11.9104 8.12134 11.9387 8.17007 11.9952 8.26753L13.3078 10.5305C13.4606 10.7937 13.5369 10.9254 13.5257 11.0333C13.5158 11.1275 13.4665 11.213 13.3898 11.2686C13.302 11.3323 13.1498 11.332 12.8454 11.3314L10.2294 11.3261C10.1167 11.3259 10.0604 11.3258 10.0099 11.3421C9.96532 11.3565 9.92426 11.3803 9.88944 11.4117C9.85008 11.4472 9.82201 11.496 9.76587 11.5937L8.46242 13.8619C8.31077 14.1258 8.23494 14.2578 8.13583 14.302C8.04939 14.3406 7.95062 14.3406 7.86418 14.302C7.76507 14.2578 7.68924 14.1258 7.53758 13.8619L6.23414 11.5937C6.178 11.496 6.14993 11.4472 6.11057 11.4117C6.07575 11.3803 6.03469 11.3565 5.99008 11.3421C5.93966 11.3258 5.88332 11.3259 5.77064 11.3261L3.15459 11.3314C2.85021 11.332 2.69803 11.3323 2.61017 11.2686C2.53355 11.213 2.48416 11.1275 2.47435 11.0333C2.46309 10.9254 2.53945 10.7937 2.69217 10.5305L4.00478 8.26753C4.06132 8.17007 4.08958 8.12134 4.10065 8.0695C4.11043 8.02364 4.11043 7.97623 4.10065 7.93037C4.08958 7.87853 4.06132 7.8298 4.00478 7.73233L2.69217 5.46941C2.53945 5.20612 2.46309 5.07448 2.47435 4.96653C2.48416 4.87238 2.53355 4.78685 2.61017 4.73128C2.69803 4.66755 2.85021 4.66786 3.15459 4.66848L5.77064 4.67377C5.88332 4.674 5.93966 4.67411 5.99008 4.65777C6.03469 4.64332 6.07575 4.61961 6.11057 4.58821C6.14993 4.55271 6.178 4.50386 6.23414 4.40617L7.53759 2.13795Z" stroke="white" stroke-linecap="round" stroke-linejoin="round"/>
</svg>
