<svg width="16" height="16" viewBox="0 0 16 16" fill="none" xmlns="http://www.w3.org/2000/svg">
<path d="M4.66667 14.6666V7.33325M1.33334 8.66659V13.3333C1.33334 14.0696 1.93029 14.6666 2.66667 14.6666H11.6175C12.6046 14.6666 13.4441 13.9464 13.5942 12.9707L14.3122 8.30403C14.4986 7.09252 13.5612 5.99992 12.3354 5.99992H10C9.63181 5.99992 9.33334 5.70144 9.33334 5.33325V2.97714C9.33334 2.06925 8.59734 1.33325 7.68944 1.33325C7.47289 1.33325 7.27666 1.46078 7.18871 1.65867L4.84263 6.93734C4.73563 7.1781 4.49688 7.33325 4.23342 7.33325H2.66667C1.93029 7.33325 1.33334 7.93021 1.33334 8.66659Z" stroke="white" stroke-linecap="round" stroke-linejoin="round"/>
</svg>
