<svg width="16" height="16" viewBox="0 0 16 16" fill="none" xmlns="http://www.w3.org/2000/svg">
<path d="M10.4209 5.08762C10.1569 4.82361 10.0249 4.6916 9.97544 4.53939C9.93193 4.40549 9.93193 4.26126 9.97544 4.12736C10.0249 3.97514 10.1569 3.84314 10.4209 3.57913L12.3132 1.68688C11.811 1.45979 11.2536 1.33337 10.6667 1.33337C8.45753 1.33337 6.66667 3.12424 6.66667 5.33337C6.66667 5.66073 6.70599 5.97891 6.78018 6.28343C6.85962 6.60953 6.89934 6.77259 6.89228 6.87559C6.8849 6.98343 6.86882 7.04081 6.81909 7.13678C6.77159 7.22846 6.68057 7.31947 6.49855 7.5015L2.33333 11.6667C1.78105 12.219 1.78105 13.1144 2.33333 13.6667C2.88562 14.219 3.78105 14.219 4.33333 13.6667L8.49855 9.5015C8.68057 9.31947 8.77159 9.22846 8.86326 9.18095C8.95923 9.13122 9.01661 9.11514 9.12445 9.10776C9.22746 9.10071 9.39051 9.14043 9.71661 9.21987C10.0211 9.29405 10.3393 9.33337 10.6667 9.33337C12.8758 9.33337 14.6667 7.54251 14.6667 5.33337C14.6667 4.74644 14.5403 4.18902 14.3132 3.68688L12.4209 5.57913C12.1569 5.84314 12.0249 5.97514 11.8727 6.0246C11.7388 6.06811 11.5946 6.06811 11.4607 6.0246C11.3084 5.97514 11.1764 5.84314 10.9124 5.57913L10.4209 5.08762Z" stroke="white" stroke-linecap="round" stroke-linejoin="round"/>
</svg>
