<svg width="16" height="16" viewBox="0 0 16 16" fill="none" xmlns="http://www.w3.org/2000/svg">
<path d="M14.6667 5.95417C14.6667 5.55029 14.6667 5.34835 14.5868 5.25484C14.5175 5.1737 14.4136 5.13065 14.3072 5.13902C14.1846 5.14867 14.0418 5.29146 13.7562 5.57704L11.3333 7.99992L13.7562 10.4228C14.0418 10.7084 14.1846 10.8512 14.3072 10.8608C14.4136 10.8692 14.5175 10.8261 14.5868 10.745C14.6667 10.6515 14.6667 10.4495 14.6667 10.0457V5.95417Z" stroke="white" stroke-linecap="round" stroke-linejoin="round"/>
<path d="M1.33334 6.53325C1.33334 5.41315 1.33334 4.85309 1.55132 4.42527C1.74307 4.04895 2.04903 3.74299 2.42535 3.55124C2.85318 3.33325 3.41323 3.33325 4.53334 3.33325H8.13334C9.25344 3.33325 9.81349 3.33325 10.2413 3.55124C10.6176 3.74299 10.9236 4.04895 11.1153 4.42527C11.3333 4.85309 11.3333 5.41315 11.3333 6.53325V9.46659C11.3333 10.5867 11.3333 11.1467 11.1153 11.5746C10.9236 11.9509 10.6176 12.2569 10.2413 12.4486C9.81349 12.6666 9.25344 12.6666 8.13334 12.6666H4.53334C3.41323 12.6666 2.85318 12.6666 2.42535 12.4486C2.04903 12.2569 1.74307 11.9509 1.55132 11.5746C1.33334 11.1467 1.33334 10.5867 1.33334 9.46659V6.53325Z" stroke="white" stroke-linecap="round" stroke-linejoin="round"/>
</svg>
