<svg width="16" height="16" viewBox="0 0 16 16" fill="none" xmlns="http://www.w3.org/2000/svg">
<path d="M13.1653 3.33333C14.1102 4.64682 14.6667 6.25841 14.6667 7.99999C14.6667 9.74157 14.1102 11.3532 13.1653 12.6667M10.4969 5.33333C11.0241 6.08921 11.3333 7.00849 11.3333 7.99999C11.3333 8.99149 11.0241 9.91077 10.4969 10.6667M6.42288 3.57711L4.31242 5.68757C4.19712 5.80287 4.13947 5.86052 4.07219 5.90175C4.01254 5.9383 3.94751 5.96524 3.87949 5.98157C3.80277 5.99999 3.72124 5.99999 3.55817 5.99999H2.4C2.02663 5.99999 1.83995 5.99999 1.69734 6.07265C1.5719 6.13657 1.46991 6.23856 1.406 6.364C1.33334 6.50661 1.33334 6.69329 1.33334 7.06666V8.93333C1.33334 9.30669 1.33334 9.49338 1.406 9.63599C1.46991 9.76143 1.5719 9.86341 1.69734 9.92733C1.83995 9.99999 2.02663 9.99999 2.4 9.99999H3.55817C3.72124 9.99999 3.80277 9.99999 3.87949 10.0184C3.94751 10.0347 4.01254 10.0617 4.07219 10.0982C4.13947 10.1395 4.19712 10.1971 4.31242 10.3124L6.42288 12.4229C6.70846 12.7085 6.85126 12.8512 6.97385 12.8609C7.08022 12.8693 7.18417 12.8262 7.25347 12.7451C7.33334 12.6516 7.33334 12.4496 7.33334 12.0457V3.95424C7.33334 3.55036 7.33334 3.34842 7.25347 3.25491C7.18417 3.17378 7.08022 3.13072 6.97385 3.13909C6.85126 3.14874 6.70846 3.29153 6.42288 3.57711Z" stroke="white" stroke-linecap="round" stroke-linejoin="round"/>
</svg>
